<svg version="1.2" xmlns="http://www.w3.org/2000/svg" viewBox="0 0 4689 1328" width="1200" height="340"><style>.a{fill:#010103}.b{stroke:#000;stroke-miterlimit:10;stroke-width:18.1}</style><path  d="m921.8 255.1l-13.5 149.1-426.3-5.5 12.3-149.7z"/><path  d="m893.1 465.1l-13.5 149.1-426.3-5.5 12.3-149.7z"/><path  d="m551 756.8l-155.9-4.8 78.3-502.6 156.7 3.3z"/><path fill-rule="evenodd" class="a" d="m399.4 1237.5l-21.2-22.4 13.8-101-55.8 23.7-23.6-17.7 4.7-35.1 83.3-34.3 8.9-65.8-65.5 27.4 6.6-68.9-64.6 20.1-18.8 100.3-18.4 11.8-23.9-15.3 8.6-63-93.2 32.4-33.3-18.9 5.1-37.5 90.9-35.6-51.8-40.5 4.9-35.1 35.1-12 61.9 54 18.5 4.9 56.1-23.5-49.8-40.3 0.9-6.8 52.9-19.4 1.3-9.5-43.6-32-31.5 2.6-60.9 27.6-31.4-15.9 4.8-35.2 57.7-21 1-7.3-74.1-52.9 3.1-40.5 36-11.7 82.3 59 8.6-63.5 27.5-10.6 21.8 17.4-13.4 98.5 53.9 40.9 6.9-38.2 59.8 8.1 1.9 1.3 0.1-0.9 59 7.9-0.2 1 3.4-0.5 58.9 8-3.9 38.6 70.2-24 13.7-100.9 10.5-7.8 14.4-0.9 17.1 14.5-8.9 65.7 95.9-34.8 30.7 20.9-5.6 40.2-87.8 30.8 49 43-4.5 32.8-32.5 9.5-52.9-47.6-25.2-10.4-56.4 28.1 43.9 46.4-58 23.3 61.6 39.5 78.4-32.5 25 10.8 1.5 40.7-53.5 23.8 70.9 60-5.1 37.4-39.7 11.3-78.6-58.1-8.5 63-25.3 11-16.8-16.7 8.4-99.3-53.9-40.9-10.9 63.2-59.3-39.3-9 65.9 71.5 55.3-5.1 37.4-27.6 8.3-47.5-37.6-13.6 100.9-26.4 15.9zm2.6-370.7l22.8 44 58.4 8 29.9-41.5-21.1-57.8-58.8-8z"/><path fill-rule="evenodd" class="b" d="m1150.4 952.3l-46.9-207.9h-57l-35.9 207.9h-112.2l98.5-568.8 171.9 0.4q76.1 2.3 116.8 46.9 40.6 44.5 34.3 121.5-9.7 116.8-106.2 162.5l57 231.2v6.3zm-57.8-473.1l-29.7 169.5 59 0.8q40.6-0.8 64.1-32 23.4-31.7 23-83.6-1.6-51.2-44.9-54.3zm435.5 480.9q-75-1.6-119.1-49.3-43.8-47.6-47.7-132.4-1.5-29.3 2.4-59.4l14.4-94.5q11.4-75.8 44.2-134.4 32.8-58.6 81.6-87.1 48.8-28.5 110.2-27.3 75.7 1.5 118.7 51.9 43.4 50 46.5 137.1 0.8 32.9-3.5 62.2l-12.9 87.1q-17.6 117.2-79.3 182.8-61.3 65.2-155.5 63.3zm121.9-240.7l13.7-96.5q4.7-40.2 4.7-62.1-2-87.1-62.9-89.4-46.9-2-75.8 35.5-28.5 37.1-39.9 116.8l-13.6 95.7q-4.7 38.7-3.5 60.6 1.9 82 64.4 84.7 44.5 1.6 73.1-32.8 28.5-34.3 39.8-112.5zm416 80.5q3.9-28.9-8.6-48-12.1-19.6-51.1-37.9-38.7-18.8-64.9-38.7-71.5-54.3-65.6-137.1 3.5-47.7 29.7-84.8 26.5-37.5 70.7-58.2 44.1-20.7 94.5-19.5 73.1 1.5 114.1 50.8 41.4 48.8 38.3 125.4l-111.8-0.4q4.3-80.1-51.1-81.3-28.6-0.8-49.3 18.8-20.3 19.1-24.6 49.6-5.8 45.7 63.3 78.1 69.2 32.4 99.2 73 33.6 45 28.5 109.4-5.8 74.2-58.5 118.8-52.8 44.1-131.7 42.5-79.3-1.5-125.4-53.9-46.1-52.3-42.2-133.9l112.5 0.3q-3.1 50.4 12.9 72.3 16.4 21.5 51.2 21.5 30.5-0.4 48-18.8 17.6-18.7 21.9-48zm617.6-416.4l-16.8 95.7h-136.3l-82.1 473h-112.5l82.1-473h-134.4l16.8-95.7zm249.5 402.1q4.3-31.6-9.4-52.5-13.2-21.4-56-41.5-42.3-20.5-70.9-42.3-78.2-59.4-71.8-149.9 3.9-52.2 32.5-92.7 29.1-41.1 77.3-63.7 48.3-22.7 103.4-21.4 79.9 1.7 124.8 55.6 45.3 53.4 41.9 137.1l-122.2-0.4q4.7-87.6-56-88.9-31.2-0.8-53.8 20.5-22.3 21-27 54.3-6.4 50 69.3 85.4 75.6 35.5 108.5 79.9 36.7 49.2 31.2 119.7-6.4 81.1-64.1 129.8-57.7 48.3-144 46.6-86.7-1.7-137.1-58.9-50.5-57.3-46.2-146.6l123.1 0.4q-3.5 55.2 14.1 79.1 17.9 23.5 55.9 23.5 33.4-0.4 52.6-20.5 19.2-20.5 23.9-52.6zm660.9-402.1l-98.9 568.7h-109.3l-99.3-376.9-65.6 376.9h-112.1l98.4-568.7h109.8l99.6 377.3 65.6-377.3zm295.4 568.7l-9.8-116.4h-151.2l-49.6 116.4h-121.9l271.1-568.7h102.8l74.6 568.7zm-33.6-413.6l-86.4 201.5h102.4zm435.1 214.1l-82-0.4-34.7 200h-112.2l98.5-568.7 182.4 0.3q74.6 2.4 116.8 53.6 42.6 50.7 35.9 131.2-7.8 83.6-63.2 134-55.5 50-141.5 50zm-34.7-273.4l-30.9 177.3 72.3 0.8q41.8-0.8 64.8-32 23.1-31.7 21.9-84.8-0.8-27-12.9-43-12.1-16-33.6-17.6z"/></svg>